HIERARCHY
ROOT Hips
{
  OFFSET -21.6994 31.6921 0
  CHANNELS 6 Xposition Yposition Zposition Zrotation Xrotation Yrotation
  JOINT Bip01_Pelvis
  {
    OFFSET 0 0 0
    CHANNELS 6 Xposition Yposition Zposition Zrotation Xrotation Yrotation
    JOINT BN_Tail_01
    {
      OFFSET -7.25226 -1.74978 0
      CHANNELS 6 Xposition Yposition Zposition Zrotation Xrotation Yrotation
      JOINT BN_Tail_02
      {
        OFFSET 15.788 0 0
        CHANNELS 6 Xposition Yposition Zposition Zrotation Xrotation Yrotation
        JOINT BN_Tail_03
        {
          OFFSET 16.0015 0 0
          CHANNELS 6 Xposition Yposition Zposition Zrotation Xrotation Yrotation
          JOINT BN_Tail_04
          {
            OFFSET 16.1689 0 0
            CHANNELS 6 Xposition Yposition Zposition Zrotation Xrotation Yrotation
            End Site
            {
              OFFSET 0 0 0
            }
          }
        }
      }
    }
    JOINT Bip01_Spine
    {
      OFFSET 6.38383 2.70859 0.585432
      CHANNELS 6 Xposition Yposition Zposition Zrotation Xrotation Yrotation
      JOINT BN_Mane_02
      {
        OFFSET 6.12662 8.45826 0
        CHANNELS 6 Xposition Yposition Zposition Zrotation Xrotation Yrotation
        End Site
        {
          OFFSET 0 0 0
        }
      }
      JOINT Bip01_R_Thigh
      {
        OFFSET -7.04074 -2.18223 -5.47025
        CHANNELS 6 Xposition Yposition Zposition Zrotation Xrotation Yrotation
        JOINT Bip01_R_Calf
        {
          OFFSET 13.6591 0 0
          CHANNELS 6 Xposition Yposition Zposition Zrotation Xrotation Yrotation
          JOINT Bip01_R_HorseLink
          {
            OFFSET 9.07516 0 0
            CHANNELS 6 Xposition Yposition Zposition Zrotation Xrotation Yrotation
            JOINT Bip01_R_Foot
            {
              OFFSET 8.13856 0 0
              CHANNELS 6 Xposition Yposition Zposition Zrotation Xrotation Yrotation
              JOINT Bip01_R_Toe0
              {
                OFFSET 3.79737 6.30086 0
                CHANNELS 6 Xposition Yposition Zposition Zrotation Xrotation Yrotation
                JOINT Bip01_R_Toe0Nub
                {
                  OFFSET 0.838764 0 0
                  CHANNELS 6 Xposition Yposition Zposition Zrotation Xrotation Yrotation
                  End Site
                  {
                    OFFSET 0 0 0
                  }
                }
              }
            }
          }
        }
      }
      JOINT Bip01_L_Thigh
      {
        OFFSET -6.18667 -2.14873 5.3508
        CHANNELS 6 Xposition Yposition Zposition Zrotation Xrotation Yrotation
        JOINT Bip01_L_Calf
        {
          OFFSET 13.6591 0 0
          CHANNELS 6 Xposition Yposition Zposition Zrotation Xrotation Yrotation
          JOINT Bip01_L_HorseLink
          {
            OFFSET 9.07515 0 0
            CHANNELS 6 Xposition Yposition Zposition Zrotation Xrotation Yrotation
            JOINT Bip01_L_Foot
            {
              OFFSET 8.13856 0 0
              CHANNELS 6 Xposition Yposition Zposition Zrotation Xrotation Yrotation
              JOINT Bip01_L_Toe0
              {
                OFFSET 3.79737 6.30086 0
                CHANNELS 6 Xposition Yposition Zposition Zrotation Xrotation Yrotation
                JOINT Bip01_L_Toe0Nub
                {
                  OFFSET 0.838764 0 0
                  CHANNELS 6 Xposition Yposition Zposition Zrotation Xrotation Yrotation
                  End Site
                  {
                    OFFSET 0 0 0
                  }
                }
              }
            }
          }
        }
      }
      JOINT Bip01_Spine1
      {
        OFFSET 12.1687 -0.0105438 0
        CHANNELS 6 Xposition Yposition Zposition Zrotation Xrotation Yrotation
        JOINT BN_Mane_R_01
        {
          OFFSET -0.157498 5.09008 -6.54008
          CHANNELS 6 Xposition Yposition Zposition Zrotation Xrotation Yrotation
          End Site
          {
            OFFSET 0 0 0
          }
        }
        JOINT BN_Mane_R_02
        {
          OFFSET -0.1575 5.09007 6.54
          CHANNELS 6 Xposition Yposition Zposition Zrotation Xrotation Yrotation
          End Site
          {
            OFFSET 0 0 0
          }
        }
        JOINT BN_Mane_01
        {
          OFFSET 8.29709 8.50414 0
          CHANNELS 6 Xposition Yposition Zposition Zrotation Xrotation Yrotation
          End Site
          {
            OFFSET 0 0 0
          }
        }
        JOINT Bip01_Spine2
        {
          OFFSET 13.2802 -0.0100708 1.51992e-005
          CHANNELS 6 Xposition Yposition Zposition Zrotation Xrotation Yrotation
          JOINT Bip01_Neck
          {
            OFFSET 12.4891 -6.66662 0
            CHANNELS 6 Xposition Yposition Zposition Zrotation Xrotation Yrotation
            JOINT Bip01_R_Clavicle
            {
              OFFSET -7.4542 -2.82621 -1.17874
              CHANNELS 6 Xposition Yposition Zposition Zrotation Xrotation Yrotation
              JOINT Bip01_R_UpperArm
              {
                OFFSET 13.2557 0 0
                CHANNELS 6 Xposition Yposition Zposition Zrotation Xrotation Yrotation
                JOINT Bip01_R_Forearm
                {
                  OFFSET 12.8897 0 0
                  CHANNELS 6 Xposition Yposition Zposition Zrotation Xrotation Yrotation
                  JOINT Bip01_R_Hand
                  {
                    OFFSET 11.2622 0 0
                    CHANNELS 6 Xposition Yposition Zposition Zrotation Xrotation Yrotation
                    JOINT Bip01_R_Finger0
                    {
                      OFFSET 3.98015 -0.208661 -0.0949803
                      CHANNELS 6 Xposition Yposition Zposition Zrotation Xrotation Yrotation
                      JOINT Bip01_R_Finger0Nub
                      {
                        OFFSET 6.57561 0 0
                        CHANNELS 6 Xposition Yposition Zposition Zrotation Xrotation Yrotation
                        End Site
                        {
                          OFFSET 0 0 0
                        }
                      }
                    }
                  }
                }
              }
            }
            JOINT Bip01_L_Clavicle
            {
              OFFSET -7.4541 -2.82679 1.17708
              CHANNELS 6 Xposition Yposition Zposition Zrotation Xrotation Yrotation
              JOINT Bip01_L_UpperArm
              {
                OFFSET 13.2558 0 0
                CHANNELS 6 Xposition Yposition Zposition Zrotation Xrotation Yrotation
                JOINT Bip01_L_Forearm
                {
                  OFFSET 12.8897 0 0
                  CHANNELS 6 Xposition Yposition Zposition Zrotation Xrotation Yrotation
                  JOINT Bip01_L_Hand
                  {
                    OFFSET 11.2622 0 0
                    CHANNELS 6 Xposition Yposition Zposition Zrotation Xrotation Yrotation
                    JOINT Bip01_L_Finger0
                    {
                      OFFSET 3.98014 -0.20866 0.0949764
                      CHANNELS 6 Xposition Yposition Zposition Zrotation Xrotation Yrotation
                      JOINT Bip01_L_Finger0Nub
                      {
                        OFFSET 6.57562 0 0
                        CHANNELS 6 Xposition Yposition Zposition Zrotation Xrotation Yrotation
                        End Site
                        {
                          OFFSET 0 0 0
                        }
                      }
                    }
                  }
                }
              }
            }
            JOINT Bip01_Neck1
            {
              OFFSET 4.19352 -0.00332451 0
              CHANNELS 6 Xposition Yposition Zposition Zrotation Xrotation Yrotation
              JOINT Bip01_Head
              {
                OFFSET 4.17604 0.298252 0
                CHANNELS 6 Xposition Yposition Zposition Zrotation Xrotation Yrotation
                JOINT BN_Eye_R_01
                {
                  OFFSET 6.53258 -3.90694 -2.55361
                  CHANNELS 6 Xposition Yposition Zposition Zrotation Xrotation Yrotation
                  End Site
                  {
                    OFFSET 0 0 0
                  }
                }
                JOINT BN_Eye_L_01
                {
                  OFFSET 6.5326 -3.90694 2.55371
                  CHANNELS 6 Xposition Yposition Zposition Zrotation Xrotation Yrotation
                  End Site
                  {
                    OFFSET 0 0 0
                  }
                }
                JOINT BN_Ear_R_01
                {
                  OFFSET 1.75934 -4.1584 -4.45634
                  CHANNELS 6 Xposition Yposition Zposition Zrotation Xrotation Yrotation
                  End Site
                  {
                    OFFSET 0 0 0
                  }
                }
                JOINT BN_Ear_L_01
                {
                  OFFSET 1.75933 -4.15841 4.45616
                  CHANNELS 6 Xposition Yposition Zposition Zrotation Xrotation Yrotation
                  End Site
                  {
                    OFFSET 0 0 0
                  }
                }
                JOINT BN_Beard_L_01
                {
                  OFFSET 11.2964 -1.06183 2.32054
                  CHANNELS 6 Xposition Yposition Zposition Zrotation Xrotation Yrotation
                  End Site
                  {
                    OFFSET 0 0 0
                  }
                }
                JOINT BN_Beard_R_01
                {
                  OFFSET 11.2964 -1.06182 -2.32036
                  CHANNELS 6 Xposition Yposition Zposition Zrotation Xrotation Yrotation
                  End Site
                  {
                    OFFSET 0 0 0
                  }
                }
                JOINT BN_Mouth_0
                {
                  OFFSET 1.3149 1.30001 0
                  CHANNELS 6 Xposition Yposition Zposition Zrotation Xrotation Yrotation
                  End Site
                  {
                    OFFSET 0 0 0
                  }
                }
                JOINT Bip01_HeadNub
                {
                  OFFSET 12.6869 0 0
                  CHANNELS 6 Xposition Yposition Zposition Zrotation Xrotation Yrotation
                  End Site
                  {
                    OFFSET 0 0 0
                  }
                }
              }
            }
          }
        }
      }
    }
  }
}
MOTION
Frames:	4
Frame Time:	0.0333333
1.40334 19.5603 8.93445e-007 18.7674 -90 90 0 1.13687e-013 0 -89.7252 -16.3664 -87.6369 -7.25225 -1.74978 2.91038e-011 26.0019 6.1386 179.642 15.788 3.8147e-006 -9.53674e-007 -33.9147 -0.896449 -1.34097 16.0015 8.4377e-015 -2.66454e-015 -11.2662 58.5414 -44.7529 16.1689 -7.6294e-006 -3.8147e-006 49.4248 -45.1778 10.6691 6.91149 0.794572 0.271203 7.18541 -0.867727 -3.60096 6.12663 8.45826 -5.98536e-009 -88.9944 -0.0323334 -179.967 -7.29984 0.164174 -5.24978 -81.7902 -0.472029 168.944 13.6591 -1.90735e-006 8.88178e-015 -108.166 -2.40314e-006 8.81996e-006 9.07516 1.90735e-006 -3.55271e-015 122.335 -1.7265e-009 -6.56394e-007 8.13856 1.77636e-015 2.66454e-014 0.340541 3.70807 10.9471 3.79736 6.30085 -6.53344e-012 89.2411 -4.90009e-005 0.007419 0.838768 5.96047e-008 9.53674e-007 -2.5066e-008 3.09094e-010 -1.86195e-009 -6.61892 -0.0016897 5.58357 175.728 -12.028 -177.317 13.6591 2.86102e-006 3.55271e-015 -112.634 -4.53609e-006 8.94294e-006 9.07516 1.90735e-006 -4.76837e-007 3.5362 0.00598934 -0.000360072 8.13856 -3.81473e-006 -0.00114012 18.0912 -8.33598 -12.264 3.79699 6.3011 -0.00101376 90.2739 0.199099 -12.394 0.838763 4.2466e-015 9.53674e-007 179.961 -0.007816 0.00339981 12.1681 -0.0104809 -2.1652e-011 2.50624 0.447253 4.44083 -0.157499 5.09008 -6.54008 -102.465 -4.17718 158.512 -0.157497 5.09006 6.54 87.255 -0.000384725 12.0139 8.2971 8.50413 1.82568e-008 -91.651 -0.0231781 -179.978 13.2792 -0.0098629 -1.08451e-010 7.98896 1.53777 3.28691 12.4882 -6.66644 -7.671e-006 20.9185 2.56028 -4.01972 -8.01305 0.58596 -0.644176 156.959 -36.0188 125.826 13.2557 -3.55271e-015 -1.90735e-006 56.7904 -1.97463 -115.534 12.8897 -1.59872e-014 -1.77636e-015 -121.636 -2.76222e-006 -1.99073e-005 11.2623 4.76837e-007 -3.55271e-015 -141.455 78.6945 135.058 3.98016 -0.208665 -0.0949841 20.7486 -5.29292 -37.2274 6.57562 -2.98023e-006 -1.07581e-013 -179.96 -9.99847e-006 1.73173e-005 -7.84793 0.691181 1.7035 161.513 41.2156 -127.436 13.2558 -1.90735e-006 1.42109e-014 72.3379 -28.8681 126.95 12.8897 -1.06581e-014 1.77636e-015 -116.364 -1.12394e-007 -8.33684e-007 11.2623 -1.90735e-006 -9.9476e-014 -36.4213 -81.3007 -39.2165 3.98016 -0.208661 0.0949754 9.51639 -13.418 28.5544 6.57563 -1.77636e-015 -1.19209e-007 -1.29331e-007 -1.66047e-008 1.26406e-008 4.19499 -0.00312614 1.1148e-010 -14.5513 -3.73166 3.14664 4.17604 0.298252 2.77873e-009 39.2415 3.30973 6.42072 6.53259 -3.90694 -2.55361 133.025 18.1401 163.594 6.5326 -3.90695 2.55371 -46.976 18.1112 -16.4184 1.75935 -4.1584 -4.45634 26.7366 -46.7941 138.556 1.75934 -4.15841 4.45616 -153.25 -46.7965 -41.4304 11.2964 -1.06184 2.32054 139.186 8.09953 -114.257 11.2964 -1.06183 -2.32036 -25.1769 41.9235 63.013 1.31489 1.30001 1.83041e-008 178.643 -0.0403137 180 12.6869 -1.90735e-006 -3.19744e-014 -5.3724e-008 -1.47575e-010 3.05079e-011 
1.46303 19.2137 8.91233e-007 20.2108 -90 90 0 1.13687e-013 0 -89.7486 -15.9811 -88.3782 -7.25225 -1.74978 2.91041e-011 27.043 6.7289 178.367 15.788 3.8147e-006 -9.53674e-007 -35.0542 -0.334463 1.20895 16.0015 8.88178e-015 2.22045e-016 -16.476 59.2435 -41.5347 16.1689 -7.6294e-006 -3.8147e-006 43.146 -42.7919 9.36835 6.90901 0.840018 0.183606 7.12266 -0.777603 -3.2414 6.12663 8.45826 -7.51473e-009 -88.9944 -0.0323334 -179.967 -7.26577 0.100128 -5.20792 -78.3394 -1.4711 168.852 13.6591 -1.90735e-006 1.24345e-014 -108.038 -2.26785e-006 8.67945e-006 9.07516 1.90735e-006 -5.32907e-015 124.558 1.16857e-007 -5.86902e-007 8.13856 -1.77636e-015 1.24345e-014 -0.018405 3.51997 11.2753 3.79736 6.30085 7.50155e-012 88.7667 -5.89994e-005 0.00547601 0.838768 5.96046e-008 9.53674e-007 -2.5066e-008 3.09094e-010 -1.86195e-009 -6.65268 -0.0467494 5.62836 176.28 -12.2474 -177.669 13.6591 2.86102e-006 1.77636e-015 -115.848 -5.0895e-006 8.70793e-006 9.07516 1.90735e-006 -4.76837e-007 7.6495 0.0059468 -0.000798755 8.13856 -3.81473e-006 -0.00114012 16.0371 -8.06437 -12.3708 3.79699 6.3011 -0.00101376 90.0927 0.19412 -12.3958 0.838763 -1.80411e-015 9.53674e-007 179.961 -0.007816 0.00339981 12.1681 -0.0104809 -1.97571e-011 4.05043 0.499245 4.48393 -0.157499 5.09008 -6.54008 -101.379 -4.16775 164.263 -0.157497 5.09006 6.54 87.255 -0.000390347 12.0139 8.2971 8.50413 1.88181e-008 -91.6509 -0.0231781 -179.977 13.2792 -0.0098629 -1.09103e-010 8.14605 1.93564 3.54389 12.4882 -6.66644 -7.67463e-006 19.4292 2.93677 -3.92743 -8.02494 0.372138 -0.650262 158.615 -34.9739 128.517 13.2557 -3.55271e-015 -1.90735e-006 57.1517 -4.59742 -116.258 12.8897 -1.46549e-014 1.77636e-015 -117.372 4.81839e-006 -1.54295e-005 11.2623 4.76837e-007 0 -151.781 78.539 141.23 3.98016 -0.208665 -0.0949841 20.2383 -4.99346 -37.5263 6.57562 -2.98023e-006 -9.94761e-014 -179.96 -9.99847e-006 1.73173e-005 -7.86372 0.492865 1.69694 162.935 41.4691 -128.415 13.2558 -1.90735e-006 -1.42109e-014 71.5679 -27.075 127.317 12.8897 -1.42109e-014 3.55271e-015 -114.281 7.90601e-007 -4.70685e-007 11.2623 -1.90735e-006 -9.05942e-014 -36.1768 -80.9386 -36.2847 3.98016 -0.208661 0.0949754 9.50945 -13.4192 28.8578 6.57563 5.32907e-015 -1.19209e-007 -1.29331e-007 -1.66047e-008 1.26406e-008 4.19499 -0.00312614 1.11908e-010 -14.0421 -3.79844 3.12054 4.17604 0.298252 2.8768e-009 39.6957 3.07566 7.03404 6.53259 -3.90694 -2.55361 133.025 18.1402 163.594 6.5326 -3.90695 2.55371 -46.976 18.1112 -16.4184 1.75935 -4.1584 -4.45634 26.0675 -47.0325 131.769 1.75934 -4.15841 4.45616 -153.921 -47.0368 -48.2179 11.2964 -1.06184 2.32054 139.785 9.66793 -116.311 11.2964 -1.06183 -2.32036 -25.3973 41.0952 61.6893 1.31489 1.30001 1.82078e-008 178.767 -0.0404358 180 12.6869 -1.90735e-006 -3.73035e-014 -5.3724e-008 -1.47571e-010 3.05079e-011 
1.49667 18.9091 8.88467e-007 21.6545 -90 90 0 1.13687e-013 0 -89.7919 -15.5262 -89.133 -7.25225 -1.74978 2.9104e-011 27.5388 7.30907 177.131 15.788 3.8147e-006 -9.53674e-007 -36.1012 0.438643 3.96591 16.0015 -4.44089e-016 -1.55431e-015 -22.3573 59.617 -37.2665 16.1689 -7.6294e-006 -3.8147e-006 36.282 -39.6966 8.17032 6.90413 0.893931 0.0946802 7.11527 -0.652812 -2.83613 6.12663 8.45826 -8.9107e-009 -88.9944 -0.0323334 -179.967 -7.22666 0.0317753 -5.17045 -75.0197 -2.40025 168.786 13.6591 -1.90735e-006 2.84217e-014 -107.803 -2.12317e-006 8.55336e-006 9.07516 1.90735e-006 -5.32907e-015 126.629 2.44679e-007 -5.26118e-007 8.13856 -1.77636e-015 1.77636e-015 -0.612226 3.31023 11.6182 3.79736 6.30085 1.69571e-011 88.5809 -4.98726e-005 0.00403757 0.838768 5.96047e-008 9.53674e-007 -2.5066e-008 3.09094e-010 -1.86195e-009 -6.68907 -0.0925818 5.67026 177.06 -12.4287 -177.96 13.6591 2.86102e-006 0 -118.707 -5.54948e-006 8.47173e-006 9.07516 1.90735e-006 -4.76837e-007 11.6152 0.00587734 -0.00120819 8.13856 -3.81473e-006 -0.00114012 14.0158 -7.82279 -12.443 3.79699 6.3011 -0.00101376 89.911 0.189132 -12.3977 0.838763 2.44249e-015 9.53674e-007 179.961 -0.007816 0.00339981 12.1681 -0.0104809 -1.80274e-011 5.67372 0.56521 4.46656 -0.157499 5.09008 -6.54008 -100.296 -4.04895 170.028 -0.157497 5.09006 6.54 87.255 -0.000390347 12.0139 8.2971 8.50413 1.88569e-008 -91.651 -0.0231781 -179.978 13.2792 -0.0098629 -1.09147e-010 8.30457 2.28367 3.7864 12.4882 -6.66644 -7.67799e-006 17.595 3.31724 -3.7386 -8.03128 0.110551 -0.663695 160.628 -34.1256 130.754 13.2557 -3.55271e-015 -1.90735e-006 57.6197 -6.20215 -116.808 12.8897 -2.62013e-014 5.32907e-015 -113.625 3.68135e-006 -1.61868e-005 11.2623 4.76837e-007 -3.55271e-015 -159.379 78.3279 145.668 3.98016 -0.208665 -0.0949841 19.6957 -4.59991 -37.4179 6.57562 -2.98023e-006 -1.02807e-013 -179.96 -9.99847e-006 1.73173e-005 -7.87781 0.246935 1.68317 164.663 41.8619 -129.296 13.2558 -1.90735e-006 0 71.2701 -25.6677 127.693 12.8897 -3.55271e-015 -1.77636e-015 -112.177 8.81557e-007 -5.04632e-007 11.2623 -1.90735e-006 -9.05942e-014 -35.6273 -80.612 -33.5057 3.98016 -0.208661 0.0949754 9.50218 -13.4205 29.163 6.57563 -5.32907e-015 -1.19209e-007 -1.29331e-007 -1.66047e-008 1.26406e-008 4.19499 -0.00312614 1.11618e-010 -13.5372 -3.80358 3.10215 4.17604 0.298252 3.00104e-009 40.1952 2.77047 7.57853 6.53259 -3.90694 -2.55361 133.025 18.1402 163.594 6.5326 -3.90695 2.55371 -46.976 18.1112 -16.4184 1.75935 -4.1584 -4.45634 25.3298 -46.5382 125.273 1.75934 -4.15841 4.45616 -154.655 -46.5426 -54.7119 11.2964 -1.06184 2.32054 140.447 11.2178 -118.398 11.2964 -1.06183 -2.32036 -25.6496 40.2437 60.3511 1.31489 1.30001 1.81819e-008 178.891 -0.0405579 180 12.6869 -1.90735e-006 -3.55271e-014 -5.3724e-008 -1.47573e-010 3.05079e-011 
1.50113 18.6499 8.85057e-007 71.7777 -90 138.742 0 1.13687e-013 0 -89.8387 -15.0219 -89.8594 -7.25225 -1.74978 2.91039e-011 27.5983 7.86263 175.969 15.788 3.8147e-006 -9.53674e-007 -37.0913 1.36502 6.80587 16.0015 2.22045e-015 -2.22045e-015 -28.5644 59.5761 -32.2764 16.1689 -7.6294e-006 -3.8147e-006 29.3077 -36.1669 7.23896 6.89639 0.955207 0.00915671 7.14532 -0.510534 -2.40275 6.12663 8.45826 -1.01063e-008 -88.9944 -0.0323334 -179.967 -7.18348 -0.0409513 -5.14052 -71.9397 -3.23535 168.743 13.6591 -1.90735e-006 2.4869e-014 -107.507 -1.98269e-006 8.44657e-006 9.07516 1.90735e-006 -5.32907e-015 128.53 8.46498e-007 -8.54537e-007 8.13856 -1.77636e-015 -5.32907e-015 -1.38454 3.08739 11.9544 3.79736 6.30085 3.45715e-011 88.4867 -3.69997e-005 0.002782 0.838768 5.96046e-008 9.53674e-007 -2.5066e-008 3.09094e-010 -1.86195e-009 -6.72856 -0.137547 5.70423 178.003 -12.5696 -178.184 13.6591 2.86102e-006 3.55271e-015 -121.143 -5.91214e-006 8.25034e-006 9.07516 1.90735e-006 -4.76837e-007 15.2806 0.00578809 -0.00158151 8.13856 -3.81473e-006 -0.00114012 12.1117 -7.62528 -12.4716 3.79699 6.3011 -0.00101376 89.7328 0.184247 -12.3995 0.838763 -1.08247e-015 9.53674e-007 179.961 -0.007816 0.00339981 12.1681 -0.0104809 -1.65458e-011 7.29955 0.633892 4.39448 -0.157498 5.09008 -6.54008 -99.2416 -3.81967 175.717 -0.157497 5.09006 6.54 87.255 -0.000390347 12.0139 8.2971 8.50413 1.83251e-008 -91.651 -0.0231781 -179.978 13.2792 -0.0098629 -1.08531e-010 8.47469 2.57326 3.99339 12.4882 -6.66644 -7.68078e-006 15.5296 3.67047 -3.47077 -8.0284 -0.183718 -0.683859 162.885 -33.4265 132.358 13.2557 -7.10543e-015 -1.90735e-006 58.0227 -6.79196 -117.25 12.8897 -9.76996e-015 1.77636e-015 -110.797 3.50603e-006 -1.64159e-005 11.2623 4.76837e-007 5.32907e-015 -163.563 78.0943 147.851 3.98016 -0.208665 -0.0949841 19.1984 -4.15997 -36.787 6.57562 -2.98023e-006 -9.70336e-014 -179.96 -9.99848e-006 1.73173e-005 -7.88605 -0.0329155 1.66283 166.586 42.3507 -130.06 13.2558 -1.90735e-006 7.10543e-015 71.3742 -24.6341 128.03 12.8897 -7.10543e-015 0 -110.161 9.55401e-007 -5.34211e-007 11.2623 -1.90735e-006 -8.34888e-014 -34.7657 -80.3188 -30.9184 3.98016 -0.208661 0.0949754 9.4877 -13.4236 29.4817 6.57563 0 -1.19209e-007 -1.29331e-007 -1.66047e-008 1.26406e-008 4.19499 -0.00312614 1.10691e-010 -13.0413 -3.76748 3.0869 4.17604 0.298252 3.14015e-009 40.7028 2.43602 8.02371 6.53259 -3.90694 -2.55361 133.025 18.1401 163.593 6.5326 -3.90695 2.55371 -46.976 18.1112 -16.4184 1.75935 -4.1584 -4.45634 24.7459 -45.6082 119.409 1.75934 -4.15841 4.45616 -155.239 -45.6128 -60.5772 11.2964 -1.06184 2.32054 141.159 12.7059 -120.497 11.2964 -1.06183 -2.32036 -26.14 38.8463 58.5442 1.31489 1.30001 1.82145e-008 179.013 -0.0406647 180 12.6869 -1.90735e-006 -3.19744e-014 -5.3724e-008 -1.47576e-010 3.05063e-011 
